REM MD5 02242200b7668b5fe2bbff7d7f6a5ba6
FILE "Shadow Madness (Europe) (Disc 2).bin" BINARY
  TRACK 01 MODE2/2352
    INDEX 01 00:00:00
  TRACK 02 AUDIO
    INDEX 00 57:34:25
    INDEX 01 57:36:25
  TRACK 03 AUDIO
    INDEX 00 61:41:11
    INDEX 01 61:43:11
  TRACK 04 AUDIO
    INDEX 00 64:50:63
    INDEX 01 64:52:63
REM LEADOUT 70:05:63
